Coordinates
version=1
nRows=16
nColumns=33
inDegrees=yes

Units are S.I. units (second, meters, Newtons, ...)
Angles are in degrees.

endheader
time	ground_thorax_rot_x	ground_thorax_rot_y	ground_thorax_rot_z	ground_thorax_tx	ground_thorax_ty	ground_thorax_tz	clav_prot_r	clav_elev_r	scapula_abduction_r	scapula_elevation_r	scapula_upward_rot_r	scapula_winging_r	shoulder_elv_r	plane_of_elev_r	axial_rot_r	elbow_flexion_r	pro_sup_r	wrist_flex_r	wrist_dev_r	clav_prot_l	clav_elev_l	scapula_abduction_l	scapula_elevation_l	scapula_upward_rot_l	scapula_winging_l	shoulder_elv_l	plane_of_elev_l	axial_rot_l	elbow_flexion_l	pro_sup_l	wrist_flex_l	wrist_dev_l	
2.2600	-39.993290	-7.415774	4.329624	-47.050669	796.196535	7.791207	-5.131069	-45.000000	45.000000	-45.000000	25.035008	-3349.950762	-2459.574385	19.635104	-180.000000	726.300181	252.774105	14.831645	11.413220	16.780635	39.777867	-44.999995	-39.197156	-28.923724	2957.796291	-4614.174017	24.668153	-23.064978	1444.758772	21.133982	13.736480	-18.193723	
2.2700	-39.715748	-7.782603	4.467470	-45.725501	795.391767	7.916437	-4.761918	-45.000000	44.999999	-45.000000	23.918275	-3349.487841	-2459.600760	19.598691	-180.000000	726.374665	251.014168	14.732854	11.444647	16.753187	39.475690	-44.999991	-38.899971	-29.157865	2957.828282	-4614.117235	24.549521	-23.671904	1444.732410	20.884934	13.555257	-18.128349	
2.2800	-39.447197	-8.175902	4.628683	-44.554511	794.642249	8.012603	-4.377527	-45.000000	44.999999	-45.000000	22.752556	-3349.025747	-2459.616858	19.570403	-180.000000	726.435393	249.386379	14.648492	11.478861	16.707413	39.168987	-44.999983	-38.617146	-29.443097	2957.877255	-4614.035724	24.432041	-24.238092	1444.724987	20.663627	13.355892	-18.068936	
2.2900	-39.236489	-8.416714	4.620945	-43.702607	794.026934	8.051562	-4.167417	-45.000000	44.999998	-45.000000	22.048185	-3348.701194	-2459.604944	19.520823	-180.000000	726.523943	247.942243	14.538312	11.464223	16.674158	39.000754	-44.999970	-38.423839	-29.508722	2957.907712	-4613.993449	24.331878	-24.638972	1444.702161	20.501841	13.168830	-18.038826	
2.3000	-39.071468	-8.576209	4.526533	-43.205608	793.539173	8.024642	-4.045362	-45.000000	44.999996	-45.000000	21.589827	-3348.470539	-2459.567440	19.470211	-180.000000	726.620087	246.704963	14.431686	11.429474	16.638806	38.930976	-44.999947	-38.307745	-29.476983	2957.940857	-4613.969158	24.254452	-24.909998	1444.676162	20.388088	12.988370	-18.027254	
2.3100	-38.955459	-8.658885	4.355081	-43.118535	793.183203	7.920777	-3.992770	-45.000000	44.999993	-45.000000	21.341573	-3348.336486	-2459.507957	19.426791	-180.000000	726.720063	245.689218	14.347349	11.388003	16.606422	38.953316	-44.999905	-38.272593	-29.385440	2957.975245	-4613.958392	24.206269	-25.057405	1444.643839	20.312075	12.824384	-18.029922	
2.3200	-38.880964	-8.713427	4.162335	-43.456860	792.942024	7.736327	-3.956033	-45.000000	44.999987	-45.000000	21.171223	-3348.267468	-2459.424268	19.392712	-180.000000	726.811791	244.880216	14.291080	11.350885	16.571585	39.038913	-44.999830	-38.303844	-29.296694	2958.030053	-4613.952584	24.176457	-25.119866	1444.610373	20.249487	12.678587	-18.039528	
2.3300	-38.838771	-8.766492	3.978221	-44.214017	792.791964	7.473171	-3.897366	-45.000000	44.999977	-45.000000	20.983223	-3348.238857	-2459.324879	19.374890	-180.000000	726.884945	244.263606	14.276739	11.332030	16.541918	39.144175	-44.999695	-38.389411	-29.272950	2958.103893	-4613.940495	24.161233	-25.131629	1444.576695	20.171825	12.565025	-18.049608	
2.3400	-38.820419	-8.829985	3.818215	-45.376525	792.714260	7.136673	-3.819884	-45.000000	44.999959	-45.000000	20.766342	-3348.242520	-2459.197427	19.366766	-180.000000	726.942213	243.827720	14.288423	11.322154	16.529533	39.235471	-44.999453	-38.515634	-29.296500	2958.209944	-4613.941530	24.153587	-25.099279	1444.532020	20.053550	12.482612	-18.057403	
2.3500	-38.816932	-8.904188	3.678498	-46.926162	792.695175	6.735148	-3.726126	-45.000000	44.999926	-45.000000	20.522932	-3348.270533	-2459.042244	19.368642	-180.000000	726.985325	243.588038	14.322970	11.320512	16.540397	39.313758	-44.999020	-38.669226	-29.389866	2958.333121	-4613.942264	24.143873	-25.035589	1444.481062	19.880011	12.429727	-18.063786	
2.3600	-38.836011	-9.008326	3.589979	-48.841595	792.725668	6.279082	-3.605497	-45.000000	44.999868	-45.000000	20.219278	-3348.331646	-2458.861627	19.370047	-180.000000	727.010263	243.564316	14.364402	11.316646	16.603592	39.419570	-44.998246	-38.875526	-29.610049	2958.455980	-4613.934008	24.133693	-24.949363	1444.439654	19.635688	12.386171	-18.069252	
2.3700	-38.875156	-9.139903	3.550038	-51.101139	792.801272	5.780024	-3.456094	-45.000000	44.999763	-45.000000	19.858629	-3348.434026	-2458.663557	19.376813	-180.000000	727.014946	243.784323	14.416556	11.311943	16.734904	39.571132	-44.996856	-39.142680	-29.999071	2958.557346	-4613.905690	24.134144	-24.842086	1444.416619	19.315303	12.348973	-18.075556	
2.3800	-38.937027	-9.299898	3.569808	-53.683962	792.921359	5.249394	-3.278700	-45.000000	44.999575	-45.000000	19.424328	-3348.585915	-2458.449486	19.384849	-180.000000	726.996788	244.274063	14.475705	11.299816	16.946381	39.755405	-44.994372	-39.475896	-30.557845	2958.636628	-4613.865343	24.156184	-24.709018	1444.414284	18.926429	12.307792	-18.085312	
2.3900	-39.010532	-9.461918	3.604779	-56.572185	793.088512	4.697293	-3.083230	-45.000000	44.999239	-45.000000	18.964949	-3348.760840	-2458.216065	19.386844	-180.000000	726.955325	245.034321	14.543703	11.282287	17.162245	39.979227	-44.989908	-39.839386	-31.206948	2958.706933	-4613.808474	24.177199	-24.622475	1444.442591	18.516642	12.260846	-18.105858	
2.4000	-39.099803	-9.648159	3.686082	-59.750701	793.307151	4.131899	-2.853418	-45.000000	44.998637	-45.000000	18.408933	-3348.963840	-2457.977100	19.387811	-180.000000	726.884653	246.086983	14.621914	11.255036	17.420721	40.200933	-44.981954	-40.241884	-31.985809	2958.762175	-4613.732723	24.207530	-24.539269	1444.501176	18.101294	12.206923	-18.139273	
2.4100	-39.187906	-9.849476	3.786236	-63.207621	793.582470	3.559126	-2.598438	-45.000000	44.997559	-45.000000	17.781496	-3349.171907	-2457.728020	19.393624	-180.000000	726.784208	247.445196	14.714984	11.218860	17.679114	40.381571	-44.967587	-40.648810	-32.825894	2958.819531	-4613.648987	24.236217	-24.470366	1444.581291	17.720511	12.152019	-18.188520	
